<svg xmlns="http://www.w3.org/2000/svg" viewBox="0 0 540 480" fill="none">
<defs><clipPath id="window"><rect x="61" y="29" width="418" height="393" rx="185"/></clipPath><pattern id="grid" width="32" height="32" patternUnits="userSpaceOnUse"><path d="M32 0H0V32" stroke="#fff" stroke-opacity=".045"/></pattern></defs>
<rect x="48" y="16" width="444" height="419" rx="199" fill="#e6e6dc" stroke="#d1d3c7"/><rect x="61" y="29" width="418" height="393" rx="185" fill="#253c37"/>
<g clip-path="url(#window)"><rect x="61" y="29" width="418" height="393" fill="url(#grid)"/><circle cx="372" cy="129" r="54" fill="#e5aa74"/><circle cx="356" cy="111" r="8" fill="#c8895a"/><circle cx="392" cy="146" r="13" fill="#c8895a"/><ellipse cx="371" cy="131" rx="83" ry="17" transform="rotate(-27 371 131)" stroke="#f3cba0" stroke-width="4"/><path d="M52 339C175 305 378 329 489 383V447H52Z" fill="#456053"/><path d="M26 381C174 326 370 380 509 356V463H26Z" fill="#91a38a"/><path d="M113 388Q265 357 417 409" stroke="#b8c2a8" stroke-width="2" stroke-dasharray="5 9"/>
<g fill="#f3e8c8"><circle cx="158" cy="94" r="2"/><circle cx="276" cy="73" r="2"/><circle cx="418" cy="234" r="2"/><circle cx="103" cy="256" r="2"/><circle cx="319" cy="273" r="2"/><path d="M197 149v12m-6-6h12M401 67v10m-5-5h10M138 309v10m-5-5h10" stroke="#f3e8c8" stroke-width="1.5"/></g>
<g transform="translate(172 170) rotate(-14 75 95)"><rect x="-15" y="62" width="39" height="81" rx="16" fill="#b9392c" stroke="#202e29" stroke-width="7"/><path d="M14 62C14 4 116 4 116 65V158Q116 167 105 167H84V142H57V170H27Q14 170 14 157Z" fill="#e95b40" stroke="#202e29" stroke-width="7" stroke-linejoin="round"/><path d="M29 59C26 26 74 16 94 36" stroke="#ff9873" stroke-width="10" stroke-linecap="round"/><rect x="56" y="45" width="88" height="49" rx="24" fill="#a8cfcd" stroke="#202e29" stroke-width="7"/><path d="M75 58h43" stroke="#e9f6ea" stroke-width="9" stroke-linecap="round"/><path d="M39 118v19" stroke="#ba382b" stroke-width="10" stroke-linecap="round"/></g>
<path d="M290 321Q345 384 424 307" stroke="#e8dec0" stroke-width="3" stroke-dasharray="6 6"/></g>
<g fill="#90968a"><circle cx="270" cy="22" r="3"/><circle cx="270" cy="429" r="3"/><circle cx="54" cy="225" r="3"/><circle cx="486" cy="225" r="3"/></g>
<g transform="translate(13 340) rotate(-8)"><rect width="157" height="65" rx="6" fill="#f6f5ef" stroke="#d1d3c7"/><circle cx="23" cy="23" r="5" fill="#3b7258"/><text x="38" y="27" fill="#3b7258" font-family="monospace" font-size="10">CREW WELCOME</text><text x="17" y="48" fill="#252824" font-family="monospace" font-size="11">NEXT STOP: NIKO233</text></g>
<g transform="translate(386 358) rotate(9)"><rect width="127" height="79" rx="4" fill="#e9b95e"/><path d="M12 14h103M12 61h103" stroke="#8a672a" stroke-width="1"/><text x="16" y="43" fill="#463c28" font-family="monospace" font-size="18" font-weight="bold">EST. 2023</text></g>
</svg>
